<svg version="1.0" xmlns="http://www.w3.org/2000/svg" width="512.000000pt" height="512.000000pt" viewBox="0 0 512.000000 512.000000" preserveAspectRatio="xMidYMid meet">
  <metadata> Created by potrace 1.16, written by Peter Selinger 2001-2019 </metadata>
  <g transform="translate(0.000000,512.000000) scale(0.100000,-0.100000)" fill="#000000" stroke="none">
    <path d="M641 3304 c-332 -101 -612 -189 -622 -195 -17 -8 -19 -22 -19 -107 0 -63 4 -102 12 -110 7 -7 31 -12 55 -12 l43 0 0 -165 0 -165 -43 0 c-24 0 -48 -5 -55 -12 -9 -9 -12 -69 -12 -209 l0 -196 96 -127 96 -126 137 0 138 0 38 -47 c75 -93 190 -168 295 -192 69 -16 219 -13 281 5 110 33 212 101 276 185 l37 49 723 0 723 0 0 50 0 50 -699 0 -699 0 14 53 c18 69 18 198 -1 272 -24 91 -73 174 -145 245 -78 77 -141 113 -246 140 -189 49 -377 -3 -515 -141 -145 -144 -194 -349 -133 -551 5 -16 -3 -18 -78 -18 l-83 1 -78 104 -77 105 0 130 0 130 154 0 155 0 19 28 c36 52 112 191 112 205 0 16 -107 267 -122 284 -8 10 -53 13 -165 13 -153 0 -154 0 -151 22 3 19 63 40 602 205 l600 183 520 0 c544 0 682 -7 831 -42 216 -50 342 -113 680 -342 l259 -176 206 0 c360 -1 518 -22 716 -99 92 -36 209 -103 316 -182 l72 -54 -72 -3 -72 -3 0 -49 0 -50 110 0 c61 0 110 -4 110 -9 0 -5 -18 -48 -40 -96 -39 -85 -40 -90 -40 -196 l0 -109 -109 0 -109 0 14 47 c8 25 14 87 14 137 0 163 -44 272 -154 382 -199 199 -493 217 -723 44 -142 -108 -224 -319 -195 -502 6 -41 14 -82 18 -91 6 -16 -17 -17 -310 -17 l-316 0 0 -50 0 -50 343 0 343 0 17 -29 c51 -87 200 -185 318 -211 83 -18 240 -9 312 19 84 33 175 98 227 164 l45 57 170 0 c120 0 175 4 183 12 8 8 12 52 12 131 l0 119 60 135 c33 75 60 150 60 167 0 29 -12 40 -144 139 -245 183 -376 251 -596 310 -114 30 -119 30 -430 36 l-315 6 -245 168 c-270 185 -400 257 -564 311 -216 73 -259 76 -959 76 l-622 -1 -604 -185z m-262 -520 l41 -95 -40 -70 -41 -69 -64 0 -65 0 0 165 0 165 64 0 64 0 41 -96z m656 -199 c124 -32 232 -124 288 -245 86 -182 19 -414 -153 -528 -87 -58 -151 -75 -264 -70 -78 3 -100 9 -158 37 -76 38 -162 121 -198 191 -168 329 130 707 485 615z m3238 0 c79 -20 131 -49 188 -102 103 -96 143 -196 137 -338 -3 -80 -8 -101 -38 -161 -44 -89 -116 -161 -205 -205 -67 -32 -75 -34 -181 -34 -107 0 -112 1 -186 38 -88 43 -161 116 -203 201 -156 319 145 690 488 601z" />
    <path d="M837 2446 c-90 -33 -158 -104 -188 -194 -17 -50 -7 -169 19 -217 51 -99 153 -159 267 -158 118 0 204 54 255 157 31 61 32 71 28 148 -6 120 -53 195 -152 245 -62 32 -171 41 -229 19z m171 -115 c71 -36 102 -87 102 -168 0 -83 -63 -156 -153 -177 -65 -15 -165 42 -193 111 -28 66 -8 160 42 204 58 51 138 63 202 30z" />
    <path d="M4077 2446 c-90 -33 -158 -104 -188 -194 -17 -50 -7 -169 19 -217 51 -99 153 -159 267 -158 118 0 204 54 255 157 31 61 32 71 28 148 -6 120 -53 195 -152 245 -62 32 -171 41 -229 19z m171 -115 c71 -36 102 -87 102 -168 0 -83 -63 -156 -153 -177 -65 -15 -165 42 -193 111 -28 66 -8 160 42 204 58 51 138 63 202 30z" />
    <path d="M1210 3311 c-69 -21 -176 -53 -238 -71 -63 -18 -120 -39 -128 -47 -19 -19 -18 -57 2 -74 15 -13 494 -93 502 -84 6 6 23 98 19 102 -2 2 -54 11 -116 20 l-113 17 129 38 c123 36 134 38 276 38 l147 0 0 -81 0 -81 -27 6 c-114 22 -107 25 -117 -50 l-6 -41 73 -12 c39 -7 261 -41 492 -77 l420 -64 405 0 c223 0 410 4 416 8 6 4 14 17 18 29 10 30 -25 64 -166 163 -195 136 -372 216 -603 272 -86 21 -113 22 -675 24 l-585 3 -125 -38z m690 -157 l0 -96 -31 6 c-17 3 -40 6 -50 6 -17 0 -19 9 -19 90 l0 90 50 0 50 0 0 -96z m460 86 c268 -20 497 -98 720 -247 l65 -43 -274 0 -273 0 -289 45 c-159 25 -291 45 -294 45 -3 0 -5 47 -5 105 l0 105 108 0 c59 0 168 -5 242 -10z" />
    <path d="M1765 2777 c-88 -40 -166 -76 -172 -80 -7 -5 -13 -23 -13 -40 1 -26 30 -69 155 -226 85 -107 160 -200 167 -207 9 -9 237 -26 793 -58 429 -25 801 -48 828 -51 l47 -6 0 55 0 55 -42 5 c-24 3 -384 26 -802 50 -688 41 -760 47 -771 63 -7 10 -63 81 -124 157 l-111 140 121 54 121 54 784 -118 c431 -65 785 -116 788 -113 2 2 7 27 10 54 l7 50 -783 118 c-431 65 -796 118 -813 117 -16 0 -102 -33 -190 -73z" />
  </g>
</svg>