<?xml version="1.0" standalone="no"?>
<!DOCTYPE svg PUBLIC "-//W3C//DTD SVG 20010904//EN"
 "http://www.w3.org/TR/2001/REC-SVG-20010904/DTD/svg10.dtd">
<svg version="1.0" xmlns="http://www.w3.org/2000/svg"
 width="1140.000000pt" height="300.000000pt" viewBox="0 0 1140.000000 300.000000"
 preserveAspectRatio="xMidYMid meet">
<metadata>
Created by potrace 1.16, written by Peter Selinger 2001-2019
</metadata>
<g transform="translate(0.000000,300.000000) scale(0.100000,-0.100000)"
fill="#000000" stroke="none">
<path d="M1134 2525 c-399 -91 -698 -382 -797 -775 -31 -122 -31 -368 0 -490
94 -373 380 -666 743 -761 165 -43 394 -41 555 6 483 140 796 604 745 1103
-44 429 -330 773 -745 898 -80 24 -109 27 -265 30 -124 2 -193 -1 -236 -11z
m263 -540 c33 -23 43 -76 43 -232 0 -130 2 -143 19 -153 11 -5 74 -10 140 -10
95 0 123 3 135 16 13 12 16 41 16 150 l0 136 29 29 c46 46 106 37 136 -21 13
-24 15 -88 15 -395 0 -307 -2 -371 -15 -395 -30 -58 -90 -67 -136 -21 l-29 29
0 136 c0 109 -3 138 -16 150 -12 13 -40 16 -135 16 -66 0 -129 -5 -140 -10
-17 -10 -19 -23 -19 -161 0 -106 -4 -159 -14 -184 -26 -62 -89 -74 -137 -26
l-29 29 0 161 c0 132 -3 162 -16 175 -21 22 -250 23 -280 2 -17 -13 -20 -31
-24 -161 -5 -139 -6 -148 -29 -166 -35 -28 -77 -24 -112 10 l-29 29 0 387 0
387 29 29 c35 34 77 38 112 10 23 -18 24 -27 29 -166 4 -130 7 -148 24 -161
30 -21 259 -20 280 2 13 13 16 43 16 175 l0 161 29 29 c33 33 74 38 108 14z"/>
<path d="M5048 2269 c-17 -9 -18 -40 -18 -423 0 -386 1 -418 20 -479 63 -204
289 -337 505 -298 219 40 375 225 375 446 0 121 -38 219 -120 309 -125 136
-346 182 -517 106 l-43 -19 0 174 c0 162 -1 175 -19 185 -25 13 -161 13 -183
-1z m554 -564 c57 -40 98 -119 98 -190 0 -70 -41 -150 -97 -189 -50 -35 -137
-46 -198 -26 -155 51 -200 267 -78 382 46 44 90 59 165 55 55 -2 75 -8 110
-32z"/>
<path d="M8381 2192 l-22 -17 3 -461 3 -460 30 -60 c26 -52 37 -63 90 -89 50
-25 73 -30 156 -33 135 -6 139 -3 139 101 0 51 -5 88 -12 95 -7 7 -31 12 -54
12 -53 0 -102 17 -114 40 -6 11 -10 108 -10 219 l0 201 83 0 c51 0 88 5 95 12
8 8 12 45 12 100 0 105 -3 108 -114 108 l-76 0 0 109 c0 102 -2 111 -22 125
-33 23 -159 22 -187 -2z"/>
<path d="M4391 1959 c-129 -25 -249 -117 -307 -234 -67 -135 -69 -275 -5 -411
82 -175 279 -277 476 -245 155 25 320 146 285 211 -11 21 -133 90 -160 90 -10
0 -32 -11 -48 -25 -76 -64 -175 -73 -258 -25 -29 16 -62 45 -74 65 -40 64 -38
65 301 65 318 0 318 0 334 51 11 33 -14 152 -46 218 -83 177 -296 280 -498
240z m195 -244 c28 -14 60 -38 72 -55 l23 -30 -196 0 -195 0 16 26 c10 14 40
39 68 55 67 38 140 40 212 4z"/>
<path d="M7693 1955 c-133 -29 -240 -116 -302 -244 -35 -74 -36 -79 -36 -196
0 -117 1 -122 36 -196 139 -291 525 -346 746 -106 130 140 150 368 50 540 -35
59 -125 140 -190 170 -56 27 -149 47 -206 46 -20 0 -64 -7 -98 -14z m226 -248
c22 -15 53 -46 68 -69 25 -37 28 -51 28 -123 0 -72 -3 -86 -28 -123 -40 -61
-97 -95 -167 -100 -140 -10 -239 81 -240 221 0 97 43 170 125 209 60 28 159
21 214 -15z"/>
<path d="M9194 1955 c-108 -23 -195 -79 -260 -167 -149 -203 -98 -516 108
-649 143 -92 309 -101 465 -24 172 85 267 275 236 475 -22 143 -110 263 -236
325 -112 55 -197 65 -313 40z m228 -250 c57 -40 98 -119 98 -190 0 -70 -41
-150 -97 -189 -78 -54 -197 -47 -269 17 -125 109 -95 314 56 382 23 10 57 14
102 12 55 -2 75 -8 110 -32z"/>
<path d="M10660 1959 c-165 -32 -264 -166 -232 -317 22 -107 86 -156 280 -217
147 -47 179 -77 130 -122 -50 -47 -161 -37 -214 18 -34 36 -60 36 -127 3 -102
-51 -110 -79 -46 -149 81 -88 228 -130 370 -106 170 28 255 106 266 246 13
156 -61 237 -272 295 -44 12 -97 31 -118 42 -34 17 -38 23 -35 51 4 41 37 59
100 54 32 -3 56 -12 78 -30 17 -15 37 -27 43 -27 7 0 44 17 82 38 59 31 71 42
73 66 7 55 -94 131 -206 155 -60 13 -107 13 -172 0z"/>
<path d="M2715 1944 c-15 -15 -16 -48 -13 -303 l3 -286 31 -66 c43 -89 93
-142 172 -181 119 -59 262 -50 370 23 24 16 45 29 46 29 2 0 27 -15 54 -34 65
-43 135 -60 227 -54 170 11 306 139 335 314 6 32 10 165 10 294 0 293 5 280
-120 280 -67 0 -92 -4 -104 -16 -14 -13 -16 -53 -16 -278 0 -257 -1 -264 -23
-297 -45 -68 -123 -85 -186 -40 -57 41 -61 64 -61 344 0 219 -2 258 -16 271
-19 20 -183 23 -202 4 -9 -9 -12 -80 -12 -258 0 -135 -5 -261 -10 -282 -12
-43 -66 -93 -109 -103 -42 -9 -110 25 -136 67 -18 30 -20 55 -23 298 -2 167
-7 269 -14 277 -17 21 -182 18 -203 -3z"/>
<path d="M6294 1951 c-105 -27 -214 -125 -255 -228 -22 -55 -23 -74 -27 -339
-3 -251 -2 -283 13 -297 23 -24 186 -24 209 -1 14 13 16 52 16 275 0 286 2
298 61 340 61 43 153 19 190 -51 17 -31 19 -60 19 -295 0 -190 3 -264 12 -273
16 -16 190 -16 206 0 9 9 12 80 12 258 0 135 4 261 10 279 31 109 156 139 229
55 l31 -35 0 -262 c0 -325 -7 -307 125 -307 83 0 96 2 105 19 16 30 13 512 -4
582 -60 255 -349 370 -564 225 -48 -32 -52 -33 -67 -16 -9 10 -44 30 -78 46
-66 29 -180 41 -243 25z"/>
<path d="M10183 1945 c-76 -21 -129 -50 -186 -103 -60 -56 -93 -106 -118 -180
-17 -49 -19 -86 -19 -312 0 -186 3 -259 12 -268 17 -17 194 -16 205 1 4 6 10
120 13 252 5 218 7 244 26 280 30 58 87 94 164 105 35 5 67 15 71 22 14 21 11
192 -3 206 -16 16 -100 14 -165 -3z"/>
</g>
</svg>
