<svg version="1.0" xmlns="http://www.w3.org/2000/svg" width="512.000000pt" height="512.000000pt" viewBox="0 0 512.000000 512.000000" preserveAspectRatio="xMidYMid meet">
  <metadata> Created by potrace 1.16, written by Peter Selinger 2001-2019 </metadata>
  <g transform="translate(0.000000,512.000000) scale(0.100000,-0.100000)" fill="#000000" stroke="none">
    <path d="M4037 4120 c-106 -61 -128 -80 -148 -124 -25 -55 -24 -79 10 -182 31
-94 48 -201 37 -231 -5 -13 -12 -6 -30 33 -29 62 -41 72 -208 182 -155 102
-188 116 -264 110 -163 -14 -246 -213 -143 -341 l31 -38 -79 39 c-170 86 -472
175 -687 203 -185 24 -350 -17 -499 -125 -59 -42 -208 -188 -256 -251 l-22
-29 -112 23 c-62 13 -161 39 -220 58 -97 32 -147 55 -361 167 -50 26 -70 30
-130 30 -50 0 -85 -6 -117 -21 l-47 -21 -93 86 c-135 122 -167 135 -351 140
-138 4 -149 3 -187 -19 -71 -40 -99 -129 -63 -199 24 -48 332 -419 392 -473
56 -50 153 -87 230 -87 l49 0 243 -201 c253 -209 314 -248 412 -269 54 -11
265 -7 337 6 21 4 30 -2 52 -35 15 -22 27 -44 27 -49 0 -5 -63 -39 -140 -75
l-141 -66 -67 68 c-110 111 -226 181 -379 228 -78 24 -105 27 -238 27 -173 1
-239 -12 -373 -75 -220 -102 -384 -285 -462 -517 -30 -87 -34 -111 -38 -242
-3 -123 -1 -158 17 -233 76 -319 327 -571 643 -647 100 -24 289 -27 388 -6
325 69 583 319 664 642 l21 84 151 -217 c83 -119 163 -226 178 -237 26 -20 43
-21 315 -24 280 -3 288 -2 314 18 35 28 38 89 5 120 -21 19 -34 20 -282 20
l-261 0 -137 198 -136 197 190 3 189 2 46 -39 c62 -55 135 -81 228 -81 160 0
295 93 341 233 9 29 18 53 19 55 2 2 29 -10 61 -26 126 -63 318 -112 439 -112
l63 0 -14 -62 c-14 -60 -64 -339 -64 -359 0 -5 -87 -9 -206 -9 -115 0 -213 -4
-224 -10 -25 -13 -41 -65 -30 -94 20 -53 36 -56 283 -56 265 0 287 5 318 74
10 23 19 36 19 30 0 -19 121 -144 189 -196 89 -67 207 -123 316 -148 108 -26
276 -29 380 -7 336 71 600 326 676 653 18 81 21 115 17 237 -4 127 -8 152 -37
237 -37 108 -74 179 -140 265 -42 55 -46 64 -43 108 2 27 -1 61 -8 77 -15 36
-105 99 -211 149 l-81 38 48 12 c27 6 81 16 119 22 105 16 130 26 169 69 59
66 58 100 -9 308 -76 236 -113 324 -171 415 -62 95 -484 579 -519 595 -14 7
-49 12 -78 12 -43 0 -65 -7 -120 -40z m317 -338 c102 -117 188 -216 190 -221
9 -14 -81 5 -108 22 -30 20 -71 75 -192 257 -115 172 -110 163 -91 158 9 -1
99 -99 201 -216z m-161 -157 c129 -187 168 -214 342 -230 118 -11 132 -15 145
-43 14 -31 60 -162 60 -172 0 -4 -27 -13 -59 -20 -159 -33 -252 -147 -208
-253 l16 -37 -72 -20 c-196 -56 -381 -138 -498 -222 l-76 -55 -72 69 c-117
112 -277 207 -425 254 -31 10 -56 21 -56 24 0 8 228 117 399 190 281 121 403
272 405 500 1 47 -3 105 -7 130 -10 55 -12 58 106 -115z m-578 32 l140 -94 29
-89 c16 -49 30 -93 32 -99 4 -10 -50 -51 -74 -57 -9 -2 -25 27 -45 87 l-32 90
-125 85 c-107 73 -125 89 -128 115 -4 30 17 55 47 55 9 0 79 -42 156 -93z
m-3153 1 c26 -7 72 -43 141 -106 56 -52 150 -135 210 -184 59 -50 107 -93 107
-97 0 -11 -163 -61 -198 -61 -37 0 -97 23 -126 48 -10 9 -84 96 -164 192 -80
96 -154 185 -165 198 l-20 22 88 0 c48 0 105 -5 127 -12z m2108 -52 c254 -43
467 -110 627 -197 l72 -40 -347 -174 c-209 -105 -366 -189 -395 -214 -57 -48
-114 -115 -135 -159 -9 -18 -19 -31 -22 -30 -4 2 -96 102 -205 223 -109 121
-209 232 -222 246 l-24 27 88 92 c105 111 202 182 286 209 106 34 154 37 277
17z m-1539 -146 c143 -79 242 -125 348 -160 113 -38 328 -90 369 -90 13 0 47
-29 90 -77 39 -43 69 -79 68 -80 -1 -2 -70 -16 -151 -33 -154 -31 -192 -31
-250 -2 -28 14 -575 459 -575 468 0 14 55 0 101 -26z m2494 -209 c40 -19 40
-19 15 -29 -14 -5 -113 -51 -220 -101 -254 -120 -466 -234 -535 -288 -67 -53
-145 -155 -182 -240 l-27 -63 -73 0 -72 0 16 38 c8 20 35 76 60 124 75 146
109 171 482 357 321 160 454 220 481 220 8 0 33 -8 55 -18z m-2286 -235 c166
-135 213 -162 314 -178 70 -11 75 -13 100 -52 l26 -41 -52 -8 c-77 -12 -188
-2 -234 21 -30 16 -355 275 -421 337 -12 10 -3 16 45 32 32 11 63 17 68 13 6
-3 75 -59 154 -124z m923 -242 c68 -75 124 -140 126 -144 7 -20 -91 -206 -123
-233 l-33 -27 -167 246 c-91 135 -165 247 -163 248 4 4 200 44 220 45 10 1 68
-55 140 -135z m1052 -8 c177 -45 360 -149 469 -265 l47 -50 -41 -63 c-54 -85
-105 -191 -150 -318 l-37 -105 -72 -3 c-194 -8 -510 113 -576 221 -34 54 -91
115 -127 133 -26 14 -28 18 -22 57 25 162 122 308 255 385 69 40 121 41 254 8z
m1271 -175 c39 -12 103 -37 144 -57 l75 -37 -183 -63 c-101 -35 -189 -64 -195
-64 -11 0 -87 217 -86 244 0 15 169 -1 245 -23z m-280 -404 c63 -195 115 -362
115 -373 0 -11 -5 -25 -12 -32 -16 -16 -63 -15 -76 1 -14 17 -235 697 -229
704 13 12 72 52 79 53 4 0 59 -159 123 -353z m-3120 309 c44 -15 109 -45 145
-66 64 -38 170 -125 170 -139 0 -4 -31 -22 -69 -40 l-68 -34 -52 41 c-102 81
-212 116 -353 114 -411 -6 -669 -431 -487 -801 158 -320 572 -409 852 -184 62
50 131 144 158 213 33 89 28 85 113 88 l77 3 -7 -28 c-34 -139 -96 -247 -198
-348 -87 -86 -190 -148 -296 -179 -259 -75 -531 -1 -715 195 -78 82 -118 146
-157 250 -40 109 -50 273 -23 394 57 257 259 463 526 535 107 29 273 23 384
-14z m1455 -166 c0 -59 24 -108 62 -128 55 -28 115 -94 127 -137 16 -60 14
-86 -15 -144 -33 -65 -85 -102 -153 -109 -67 -6 -114 12 -177 69 -54 49 -55
49 -124 49 -38 0 -72 5 -75 11 -4 6 -9 36 -12 68 -17 185 136 358 320 360 l47
1 0 -40z m-547 -44 l47 -73 -16 -64 c-11 -43 -15 -89 -12 -141 l5 -78 -130 0
-129 0 -36 -36 -36 -36 -375 -19 c-435 -22 -489 -23 -476 -10 10 10 1095 531
1105 531 3 0 26 -33 53 -74z m1892 22 l15 -51 -53 -56 c-104 -109 -149 -221
-150 -371 -2 -354 289 -612 636 -562 170 24 335 140 406 283 28 56 30 68 21
96 -23 65 -106 68 -145 5 -73 -120 -144 -179 -259 -214 -219 -66 -458 88 -495
321 -16 100 16 228 76 301 l21 25 55 -171 c30 -94 62 -184 70 -200 34 -66 105
-106 187 -106 123 0 210 86 210 208 0 28 -20 108 -51 205 -29 88 -49 162 -46
165 10 11 92 -39 144 -89 36 -34 65 -74 88 -123 19 -39 41 -74 50 -78 59 -22
115 14 115 74 0 59 -55 156 -135 237 l-70 73 80 29 80 29 33 -31 c53 -51 121
-160 154 -249 40 -108 50 -273 23 -393 -57 -256 -263 -471 -512 -536 -89 -23
-248 -27 -328 -9 -204 46 -395 192 -485 372 -22 44 -40 90 -40 102 0 12 17 91
39 176 41 162 93 313 143 415 27 53 99 175 105 175 1 0 9 -23 18 -52z m-2880
-119 c54 -20 93 -44 85 -52 -3 -3 -79 -39 -170 -82 -221 -104 -256 -138 -248
-242 5 -60 26 -95 79 -132 34 -23 35 -23 244 -16 116 3 218 9 228 11 34 10
-27 -88 -92 -148 -81 -76 -148 -102 -261 -102 -174 0 -308 93 -373 258 -30 73
-28 201 2 279 45 114 175 221 301 246 58 12 141 4 205 -20z" />
  </g>
</svg>